<?xml version="1.0" encoding="UTF-8"?>
<svg version="1.1" xmlns="http://www.w3.org/2000/svg" width="1851" height="672">
<path d="M0 0 C177.87 0 355.74 0 539 0 C539 8.25 539 16.5 539 25 C489.44244343 25.15353967 439.88487661 25.2973393 390.32714844 25.38108826 C389.59377963 25.38233077 388.86041083 25.38357328 388.10481873 25.38485345 C372.16706872 25.41178908 356.22931617 25.43672079 340.29155982 25.45958797 C332.47578541 25.47081408 324.66001169 25.48248305 316.84423828 25.49438477 C315.67758783 25.49615001 315.67758783 25.49615001 314.48736867 25.49795092 C289.27374708 25.536309 264.06030691 25.60391505 238.84679525 25.68667499 C212.93847947 25.77156115 187.03026411 25.82696726 161.12181162 25.84523491 C157.46315532 25.84782834 153.80449937 25.85075907 150.14584351 25.85389519 C149.06572048 25.8548054 149.06572048 25.8548054 147.96377679 25.855734 C136.36833229 25.8663731 124.77319811 25.90812494 113.17788021 25.96148831 C101.5230168 26.01446259 89.86853726 26.03398578 78.21354979 26.0215124 C71.89742014 26.0157348 65.58220195 26.02473069 59.26623344 26.07284927 C53.48584164 26.11656689 47.70697626 26.11891314 41.92651498 26.08809005 C39.83348908 26.08427933 37.74036889 26.09576749 35.64752924 26.12394864 C20.00735991 26.32233635 20.00735991 26.32233635 15.05512238 23.06007946 C13.00070205 20.79709838 11.50447934 18.6500022 10 16 C9.02513141 14.69848274 8.03806143 13.40587402 7.03125 12.12890625 C6.18209966 10.94395555 5.33820003 9.75522174 4.5 8.5625 C4.05914063 7.95212891 3.61828125 7.34175781 3.1640625 6.71289062 C0 2.25667217 0 2.25667217 0 0 Z " fill="#FFFFFF" transform="translate(756,531)"/>
<path d="M0 0 C31.83974109 -0.02281866 63.67947985 -0.04051282 95.51922721 -0.05106533 C99.27925695 -0.05231602 103.03928668 -0.05361034 106.79931641 -0.05493164 C107.54786223 -0.05519395 108.29640805 -0.05545626 109.06763709 -0.05572652 C121.18373893 -0.06007636 133.29983602 -0.06796014 145.41593504 -0.0771528 C157.85062983 -0.0865084 170.28532213 -0.09205966 182.72002029 -0.09408849 C190.39122736 -0.09545975 198.06242099 -0.09978889 205.73362392 -0.10791647 C211.61854263 -0.11383341 217.50345447 -0.11445412 223.38837624 -0.11310768 C225.8006276 -0.11338281 228.21287946 -0.11537211 230.62512779 -0.11920547 C233.9197816 -0.12418432 237.21437806 -0.12298277 240.5090332 -0.12025452 C241.93902114 -0.12462378 241.93902114 -0.12462378 243.39789772 -0.12908131 C248.6955512 -0.11723322 253.75512689 0.25521768 259 1 C260.84243892 1.08241835 262.68697012 1.13042354 264.53125 1.1328125 C265.50707031 1.13410156 266.48289062 1.13539063 267.48828125 1.13671875 C268.97908203 1.13091797 268.97908203 1.13091797 270.5 1.125 C271.49386719 1.12886719 272.48773438 1.13273438 273.51171875 1.13671875 C274.48753906 1.13542969 275.46335937 1.13414062 276.46875 1.1328125 C277.33951172 1.13168457 278.21027344 1.13055664 279.10742188 1.12939453 C282.11657182 1.04107919 282.11657182 1.04107919 285.53459167 0.49942875 C290.47475946 -0.12827735 295.36520224 -0.1357043 300.33911133 -0.12025452 C301.35458416 -0.12110894 302.37005699 -0.12196337 303.41630173 -0.12284368 C306.80489642 -0.12448537 310.19344115 -0.11899862 313.58203125 -0.11352539 C316.01667784 -0.11324321 318.45132452 -0.11340186 320.88597107 -0.1139679 C326.12039672 -0.11419531 331.35481116 -0.11136647 336.5892334 -0.10573006 C344.15723132 -0.09758618 351.72522322 -0.09499688 359.29322505 -0.09374207 C371.57325372 -0.09155608 383.85327573 -0.08490829 396.13330078 -0.07543945 C408.05875617 -0.0662536 419.98420975 -0.05917851 431.90966797 -0.05493164 C432.64535409 -0.05466892 433.38104021 -0.05440619 434.13901985 -0.05413551 C437.82992036 -0.05283043 441.52082089 -0.05156673 445.21172142 -0.05032361 C475.80781905 -0.03996511 506.4039086 -0.02228454 537 0 C536.1151658 4.1701489 534.07385495 7.2966353 531.75 10.8125 C531.36714844 11.40353516 530.98429688 11.99457031 530.58984375 12.60351562 C529.40879151 14.41459406 528.21998135 16.21477216 527 18 C526.6931827 18.55991106 526.38636541 19.11982212 526.07025062 19.69670017 C524.85659506 21.71666605 523.68892936 23.35134793 522 25 C518.83370215 25.72538959 516.67437231 25.95436135 513.50751114 25.89485455 C512.22142623 25.91236265 512.22142623 25.91236265 510.90935981 25.93022445 C508.02195677 25.96090634 505.13704562 25.94153455 502.24957275 25.92253113 C500.16450415 25.93417212 498.07945065 25.94885019 495.99442267 25.96631223 C490.25368165 26.00534724 484.51368099 26.00043774 478.77285051 25.98836792 C472.58583596 25.98283641 466.39902711 26.01737848 460.21209717 26.0466156 C448.08636938 26.0970988 435.96096299 26.10890762 423.83516625 26.10585221 C413.98073389 26.10356668 404.12638041 26.1132522 394.27196503 26.13140297 C392.85675612 26.13395157 391.4415472 26.13649322 390.02633826 26.13902796 C389.32384322 26.14028713 388.62134817 26.1415463 387.8975654 26.14284362 C386.84190356 26.14473446 386.84190356 26.14473446 385.76491523 26.14666349 C385.05997078 26.14793252 384.35502633 26.14920155 383.62871993 26.15050904 C363.79682414 26.18583784 343.96495713 26.20633811 324.13302994 26.19666576 C323.38515969 26.19630628 322.63728945 26.19594679 321.86675647 26.19557641 C318.07616827 26.19371549 314.28558015 26.19172683 310.49499205 26.18969568 C309.36573955 26.18909266 309.36573955 26.18909266 308.21367388 26.18847746 C306.69125733 26.18766284 305.16884079 26.18684039 303.64642425 26.18601012 C279.96099445 26.17345902 256.27611948 26.21182862 232.59082031 26.28979492 C205.98518665 26.3773065 179.37990687 26.42458065 152.77412009 26.41375428 C149.93717943 26.41273969 147.10023877 26.41187048 144.26329803 26.41109657 C143.21549578 26.41077193 143.21549578 26.41077193 142.14652581 26.41044074 C131.60014581 26.40802191 121.05415459 26.43727989 110.50788116 26.48271751 C98.51229308 26.53438059 86.51773437 26.5432621 74.52203205 26.49860891 C68.39994616 26.47699309 62.27947306 26.47479052 56.15751648 26.52467346 C50.55315165 26.56984038 44.95171849 26.55966394 39.34746048 26.5052977 C37.31986679 26.4953605 35.29205152 26.5057136 33.26469615 26.53834965 C18.53738272 26.75936434 18.53738272 26.75936434 14.34189481 23.850307 C11.10338018 20.69352619 9.07096361 16.97183685 7 13 C5.66265488 10.94727543 4.31081245 8.90383786 2.9375 6.875 C0 2.27891156 0 2.27891156 0 0 Z " fill="#FFFFFF" transform="translate(50,531)"/>
<path d="M0 0 C0.77465293 0.00999075 1.54930586 0.01998149 2.34743312 0.03027499 C3.17834361 0.0212102 4.0092541 0.01214542 4.86534369 0.00280595 C7.66828702 -0.02158616 10.46995588 -0.01016819 13.27296737 0.00094759 C15.29529388 -0.00910395 17.31761062 -0.0213182 19.33991227 -0.0355171 C24.91176726 -0.06814544 30.48325865 -0.06930656 36.05519167 -0.06533706 C42.05882301 -0.0663712 48.06232344 -0.09597325 54.06589034 -0.12170255 C65.83406622 -0.16715124 77.60215603 -0.18463725 89.37040287 -0.19078946 C98.9345139 -0.19583608 108.49858503 -0.2084802 118.06268027 -0.2264694 C120.81437164 -0.23154508 123.5660631 -0.23657112 126.3177546 -0.2415756 C127.34384239 -0.24344219 127.34384239 -0.24344219 128.39065923 -0.24534649 C147.63703976 -0.28000471 166.88340699 -0.30328609 186.1298199 -0.30435026 C187.21865994 -0.30442124 187.21865994 -0.30442124 188.32949674 -0.30449367 C192.00872747 -0.3047177 195.68795819 -0.30487018 199.36718892 -0.30501401 C200.09791216 -0.30504549 200.8286354 -0.30507696 201.58150177 -0.30510938 C203.05920364 -0.30517298 204.53690551 -0.30522892 206.01460738 -0.30527723 C229.0016566 -0.30634443 251.98827759 -0.35094847 274.9751921 -0.42825162 C300.79449068 -0.51505959 326.61350323 -0.56457193 352.43295655 -0.56208456 C355.18621977 -0.56195748 357.93948296 -0.56197809 360.69274619 -0.56210172 C361.37068027 -0.56211087 362.04861435 -0.56212002 362.74709188 -0.56212945 C373.65778921 -0.56315707 384.56809001 -0.59972615 395.47866492 -0.64871784 C406.44530333 -0.69699217 417.41145317 -0.70324546 428.37816053 -0.66984057 C434.31992714 -0.65284444 440.26028622 -0.65367923 446.2019091 -0.70231092 C451.64146656 -0.74639029 457.07851182 -0.73971748 462.51802189 -0.69258368 C464.48576247 -0.68446038 466.45368587 -0.69493659 468.42120009 -0.72586834 C483.12136975 -0.94185843 483.12136975 -0.94185843 488.32877889 3.08806765 C490.62620557 5.85057859 492.44781124 8.55382228 494.21225265 11.67624056 C495.0768782 12.89424953 495.95109615 14.10560044 496.8411589 15.30514681 C497.47924483 16.27323275 498.11733077 17.24131869 498.77475265 18.23874056 C499.43604171 19.23002963 500.09733077 20.22131869 500.7786589 21.24264681 C502.21225265 23.67624056 502.21225265 23.67624056 502.21225265 25.67624056 C328.96225265 25.67624056 155.71225265 25.67624056 -22.78774735 25.67624056 C-21.88306654 22.05751731 -21.3504895 20.76728315 -19.2057161 17.96139681 C-18.68557938 17.27497103 -18.16544267 16.58854525 -17.62954423 15.88131869 C-16.81066728 14.82074252 -16.81066728 14.82074252 -15.97524735 13.73874056 C-15.44093095 13.03555697 -14.90661454 12.33237338 -14.35610673 11.60788119 C-12.8433288 9.62247645 -11.32348441 7.64394172 -9.78774735 5.67624056 C-9.26377718 4.82387253 -8.73980701 3.9715045 -8.19995895 3.09330714 C-5.43135877 0.31913469 -3.84980769 0.07615695 0 0 Z " fill="#FFFFFF" transform="translate(82.78774735331535,108.32375943660736)"/>
<path d="M0 0 C167.31 0 334.62 0 507 0 C507 7.92 507 15.84 507 24 C461.1075967 24.15357495 415.21517513 24.29737071 369.32258606 24.38108826 C368.64320145 24.38233077 367.96381685 24.38357328 367.26384483 24.38485345 C352.49846045 24.41179055 337.73307331 24.43672205 322.96768207 24.45958797 C315.72658236 24.47081385 308.4854834 24.48248285 301.24438477 24.49438477 C300.52381409 24.4955616 299.80324342 24.49673843 299.06083728 24.49795092 C275.71124589 24.53629298 252.3618507 24.60388703 229.01237815 24.68667499 C205.01477463 24.77160628 181.01727967 24.82697773 157.0195284 24.84523491 C153.62887165 24.84782825 150.23821527 24.85075898 146.84755898 24.85389519 C146.18023895 24.85450199 145.51291892 24.8551088 144.82537707 24.855734 C134.75432988 24.86570534 124.68358365 24.90160595 114.61266136 24.95157051 C103.1511758 25.00822809 91.69013317 25.03473782 80.22850599 25.0215124 C74.37981218 25.01574374 68.53210321 25.02462865 62.68358421 25.07284927 C57.32674478 25.1166934 51.97155095 25.11883159 46.61463527 25.08809005 C44.67902215 25.08429164 42.74330576 25.09567347 40.80789544 25.12394864 C24.57321929 25.34729557 24.57321929 25.34729557 17.51616383 19.66062832 C15.97214997 18.14546852 14.46212877 16.59432351 13 15 C11.7005738 13.77554919 10.39593234 12.5565616 9.08203125 11.34765625 C7.98702181 10.25776966 6.89697724 9.16286702 5.8125 8.0625 C5.24208984 7.49982422 4.67167969 6.93714844 4.08398438 6.35742188 C0 2.25382653 0 2.25382653 0 0 Z " fill="#FFFFFF" transform="translate(788,570)"/>
<path d="M0 0 C1.09604931 0.0197026 1.09604931 0.0197026 2.21424103 0.03980324 C3.39120706 0.0311494 3.39120706 0.0311494 4.59195018 0.02232075 C7.23754301 0.00902042 9.8816331 0.03156765 12.5271492 0.0537698 C14.43626282 0.05159061 16.345375 0.04721491 18.25447917 0.04082397 C23.51315918 0.029611 28.77133279 0.04968855 34.02994823 0.07471427 C39.69591602 0.09625317 45.36185392 0.0890035 51.0278511 0.0852029 C60.84872358 0.08257775 70.6694303 0.09830062 80.49026108 0.1263921 C94.68960615 0.16698149 108.88887085 0.18004465 123.08826765 0.18633205 C146.12432064 0.1972824 169.16027423 0.23053381 192.19627762 0.27784511 C214.57713232 0.32375786 236.95796339 0.35918052 259.33885574 0.38038418 C260.02858347 0.38104181 260.7183112 0.38169944 261.42893976 0.382377 C268.35539187 0.38896953 275.28184417 0.39534861 282.20829662 0.40157129 C340.30786526 0.45378762 398.40734331 0.54202897 456.50682449 0.65504238 C455.16969941 9.27598039 452.92875681 17.17827929 450.50682449 25.65504238 C293.42682449 25.65504238 136.34682449 25.65504238 -25.49317551 25.65504238 C-23.84231637 21.52789453 -23.22006628 20.00774749 -20.37598801 17.06129238 C-19.46526535 16.10416347 -19.46526535 16.10416347 -18.53614426 15.12769863 C-17.90321457 14.47672207 -17.27028488 13.82574551 -16.61817551 13.15504238 C-15.36915578 11.85451668 -14.12172112 10.55246657 -12.87598801 9.24879238 C-12.32314133 8.67838222 -11.77029465 8.10797207 -11.20069504 7.52027676 C-9.37494404 5.63694649 -9.37494404 5.63694649 -7.86816907 3.07691768 C-5.18721564 0.34304295 -3.76230796 0.06298166 0 0 Z " fill="#FFFFFF" transform="translate(798.4931755065918,108.34495761990547)"/>
<path d="M0 0 C152.79 0 305.58 0 463 0 C463 7.92 463 15.84 463 24 C459.53216933 25.15594356 456.83195651 25.13506878 453.1714859 25.14818764 C452.11875436 25.15396296 452.11875436 25.15396296 451.04475552 25.15985495 C448.67521749 25.17159473 446.30571908 25.17619199 443.93615723 25.18081665 C442.22706581 25.18769298 440.51797601 25.19498152 438.80888796 25.20264852 C434.09789965 25.22241923 429.38691149 25.23578024 424.67589831 25.24799705 C420.63827239 25.25925748 416.60066333 25.27419203 412.56304955 25.28912015 C374.25152803 25.43027854 335.93962424 25.4955675 297.62789154 25.54844093 C292.63718142 25.55544977 287.64647149 25.56257674 282.65576172 25.56982422 C281.41535576 25.57161951 280.1749498 25.5734148 278.89695579 25.5752645 C258.828051 25.60529529 238.75940898 25.67002904 218.69064146 25.74851067 C198.07790399 25.82845099 177.46530228 25.8741408 156.8524127 25.88746679 C145.28269345 25.89586103 133.71343924 25.91949232 122.14387512 25.98213577 C112.28418116 26.03549192 102.4250177 26.05803934 92.56518364 26.04102559 C87.53970668 26.03330808 82.51536883 26.03983061 77.49007607 26.08630753 C39.32523264 26.42130145 39.32523264 26.42130145 24 16 C22.23250587 15.0208672 20.45878952 14.05259982 18.671875 13.109375 C17.35947523 12.33147074 16.05172024 11.54564605 14.75 10.75 C14.08355469 10.35554687 13.41710937 9.96109375 12.73046875 9.5546875 C8.32175705 6.91463705 4.10932678 4.08731805 0 1 C0 0.67 0 0.34 0 0 Z " fill="#FFFFFF" transform="translate(832,608)"/>
<path d="M0 0 C158.73 0 317.46 0 481 0 C479.02 2.64 477.04 5.28 475 8 C474.13678477 9.38934596 473.27356955 10.77869192 472.38419628 12.21013927 C467.95181385 18.50413325 462.8138637 23.41000574 455.05228639 24.92122483 C443.59190458 26.5853817 431.84986591 26.17769939 420.30368817 26.04761755 C414.96666263 26.00501393 409.63036085 26.05511443 404.29341125 26.09306335 C393.85639773 26.15248744 383.42130287 26.12624789 372.98434214 26.06938604 C364.50023811 26.02496293 356.01665429 26.01308414 347.53244591 26.02423668 C345.71791543 26.02661502 345.71791543 26.02661502 343.86672777 26.02904141 C341.40894069 26.03244027 338.95115374 26.03593057 336.49336692 26.03951129 C313.47570682 26.06958102 290.4590948 26.00407996 267.44168129 25.90405776 C247.70596601 25.82028761 227.97141698 25.81166741 208.2355957 25.85961914 C185.29314208 25.91529079 162.35133592 25.92943709 139.40885943 25.8738758 C136.9612753 25.86802432 134.51369109 25.86220577 132.0661068 25.85642052 C130.86197556 25.85352997 129.65784432 25.85063943 128.41722426 25.84766129 C119.94512184 25.8300039 111.47334283 25.84133778 103.00126076 25.86353493 C92.67395015 25.88957077 82.3479865 25.86842072 72.0209382 25.78772906 C66.75487063 25.74768147 61.49090851 25.72805508 56.22476959 25.7650032 C51.39788406 25.79824089 46.57517458 25.77085769 41.74878558 25.69628211 C40.00886982 25.67975933 38.26857781 25.68481223 36.5288342 25.71434186 C27.98814314 25.84725943 21.77839306 25.5110454 15.33763845 19.45881058 C13.20939555 17.24063458 11.20507558 14.95615257 9.27190384 12.56648942 C7.52502547 10.41501665 5.63959408 8.40101215 3.75 6.375 C1.74091145 4.09736991 0.98562037 2.9568611 0 0 Z " fill="#FFFFFF" transform="translate(78,570)"/>
<path d="M0 0 C143.22 0 286.44 0 434 0 C431 10 431 10 423 25 C281.76 25 140.52 25 -5 25 C-4 15 -4 15 0 0 Z " fill="#FFFFFF" transform="translate(1405,531)"/>
<path d="M0 0 C1.72101324 -0.01181736 3.44200328 -0.02754531 5.16294914 -0.04682136 C9.86990054 -0.08812598 14.57524763 -0.07362493 19.2822572 -0.04952908 C24.36700373 -0.03324536 29.45143197 -0.06879704 34.53608704 -0.09750366 C44.48835151 -0.14518361 54.44003305 -0.14402938 64.39237099 -0.12483993 C72.48273736 -0.10996931 80.57293473 -0.1119595 88.66330147 -0.1259079 C89.81567204 -0.12786444 90.96804261 -0.12982098 92.15533351 -0.13183682 C94.49651691 -0.13585903 96.83770026 -0.13990836 99.17888356 -0.14398453 C121.12269051 -0.17997688 143.06617026 -0.15928997 165.00995357 -0.120213 C183.8283342 -0.08818077 202.64606298 -0.10920998 221.46437073 -0.16790771 C243.32920989 -0.2361067 265.1936401 -0.26800993 287.05858666 -0.24469543 C289.39136344 -0.24233183 291.72414029 -0.24002824 294.05691719 -0.23778534 C295.20461776 -0.23667828 296.35231833 -0.23557123 297.53479771 -0.23443063 C305.6125839 -0.22924326 313.69005621 -0.2502839 321.76777458 -0.28180695 C331.61632273 -0.3196822 341.46394346 -0.31863007 351.31244879 -0.26782289 C356.33521115 -0.24293103 361.35634864 -0.23550332 366.37904549 -0.27607346 C370.98231839 -0.31276979 375.58254794 -0.29819293 380.18561793 -0.24366233 C381.84563837 -0.23281195 383.5059076 -0.24029287 385.16572361 -0.26851299 C393.89537039 -0.40610152 400.24180216 0.2643737 406.76471043 6.51376724 C408.55042293 8.34788131 410.23354795 10.23313718 411.92701721 12.15631104 C413.1813219 13.38928808 414.44372924 14.61426599 415.72389221 15.82037354 C416.71083465 16.80478536 417.69537062 17.79161816 418.67701721 18.78131104 C419.19522034 19.29564697 419.71342346 19.80998291 420.24732971 20.33990479 C423.92701721 24.02932691 423.92701721 24.02932691 423.92701721 25.15631104 C270.14701721 25.15631104 116.36701721 25.15631104 -42.07298279 25.15631104 C-34.38985786 16.19266529 -34.38985786 16.19266529 -30.41449457 12.4017942 C-28.85874352 10.90984664 -27.33491341 9.38385631 -25.84581226 7.82538056 C-17.73504552 0.1100657 -10.54608439 -0.12999536 0 0 Z " fill="#FFFFFF" transform="translate(132.07298278808594,69.84368896484375)"/>
<path d="M0 0 C1.76081332 -0.00261841 3.52162435 -0.00787548 5.28242296 -0.015535 C10.10805902 -0.02892444 14.93289311 -0.00498921 19.75842702 0.02513337 C24.96690572 0.05107566 30.17534022 0.04227367 35.38386536 0.03771973 C44.40365349 0.0345756 53.42318095 0.05337971 62.44290352 0.08714676 C75.48381757 0.1359361 88.52460574 0.15153822 101.56560116 0.15907471 C122.72434244 0.17220223 143.88294484 0.21212042 165.04161072 0.26889038 C185.59368699 0.32397545 206.14572552 0.36644069 226.69786072 0.39193726 C227.96496933 0.3935136 229.23207794 0.39508994 230.53758378 0.39671405 C236.89437811 0.40454435 243.25117271 0.41212658 249.6079675 0.41958547 C302.33309625 0.48177259 355.05807424 0.58744006 407.7830658 0.7215271 C406.7830658 8.7215271 406.7830658 8.7215271 402.7830658 24.7215271 C254.2830658 24.7215271 105.7830658 24.7215271 -47.2169342 24.7215271 C-43.08968009 20.59427298 -38.98031631 16.93832795 -34.4669342 13.2840271 C-33.46919983 12.46321655 -33.46919983 12.46321655 -32.4513092 11.62582397 C-31.12287144 10.54646829 -29.78006352 9.48450314 -28.42195839 8.44272292 C-26.24836863 6.78897999 -26.24836863 6.78897999 -24.44300562 5.116629 C-17.09719708 -0.84915235 -8.95365738 -0.09898193 0 0 Z " fill="#FFFFFF" transform="translate(856.2169342041016,70.27847290039063)"/>
<path d="M0 0 C139.59 0 279.18 0 423 0 C420.40726933 4.53727866 418.33141278 8.08534343 415.125 12 C414.48820312 12.78375 413.85140625 13.5675 413.1953125 14.375 C412.47085937 15.24125 411.74640625 16.1075 411 17 C410.68507894 17.58014124 410.37015788 18.16028249 410.04569376 18.75800377 C408.56970617 21.10625216 407.31264299 22.43816481 405 24 C399.59209031 25.07380836 394.19987389 24.91475934 388.71328735 24.84178162 C387.01693286 24.84483437 385.32058158 24.85096385 383.62424791 24.85990578 C378.96273615 24.87556772 374.30234893 24.84754727 369.64098048 24.81245935 C364.61445443 24.78225177 359.58799264 24.79245817 354.56140137 24.79777527 C345.85254495 24.80144714 337.14405542 24.77947044 328.43529129 24.7401104 C315.84391942 24.68323958 303.2527251 24.66499219 290.66123872 24.65619446 C270.23288017 24.64087112 249.80471719 24.59427858 229.37646484 24.52807617 C209.53142272 24.46383064 189.6864337 24.41427792 169.84130859 24.38452148 C168.61821675 24.38268242 167.3951249 24.38084336 166.13496967 24.37894856 C159.99912459 24.36981335 153.86327914 24.36096738 147.72743344 24.35226524 C96.81815379 24.27968902 45.90908643 24.1563889 -5 24 C-4 16 -4 16 0 0 Z " fill="#FFFFFF" transform="translate(1396,570)"/>
<path d="M0 0 C1.19042324 0.00037972 2.38084647 0.00075944 3.60734314 0.00115067 C4.27033947 -0.00000318 4.93333579 -0.00115702 5.61642292 -0.00234583 C7.86576523 -0.00501893 10.11503772 -0.00048469 12.36437649 0.00394398 C13.98216146 0.00350842 15.59994636 0.00263379 17.21773088 0.00135481 C21.68489738 -0.00089313 26.15204015 0.0031352 30.61920363 0.00813287 C35.42836527 0.01243293 40.23752547 0.01099127 45.0466885 0.0102306 C53.3860682 0.00970508 61.72544011 0.01285479 70.06481785 0.01846844 C82.12230552 0.02657967 94.17978942 0.02919827 106.23727953 0.03045643 C125.79758657 0.03264754 145.35788945 0.03930924 164.91819423 0.04875904 C183.92437892 0.05793163 202.93056247 0.06501321 221.93674892 0.06926686 C223.10738846 0.06952958 224.27802801 0.0697923 225.48414148 0.07006299 C231.35662677 0.07136798 237.22911207 0.0726317 243.10159737 0.07387489 C291.85516313 0.08424935 340.60872438 0.10186928 389.36228603 0.1241985 C388.36228603 8.1241985 388.36228603 8.1241985 383.36228603 25.1241985 C252.02228603 25.1241985 120.68228603 25.1241985 -14.63771397 25.1241985 C-12.57841798 18.94631053 -10.60693269 13.71192681 -7.51271397 8.1241985 C-7.15306553 7.45775318 -6.79341709 6.79130787 -6.42287022 6.10466725 C-3.1847691 0.14995695 -3.1847691 0.14995695 0 0 Z " fill="#FFFFFF" transform="translate(1415.6377139687538,108.8758015036583)"/>
<path d="M0 0 C131.01 0 262.02 0 397 0 C395.62714363 4.1185691 392.77559661 5.69038589 389.375 8.125 C388.71145508 8.60638428 388.04791016 9.08776855 387.36425781 9.58374023 C381.45648366 13.8046711 375.32129842 17.57640692 369.046875 21.22265625 C366.99403876 22.42014406 364.97743079 23.6817128 363 25 C360.28290313 25.24954766 360.28290313 25.24954766 356.9204855 25.24888897 C355.0009917 25.25578716 355.0009917 25.25578716 353.04272026 25.26282471 C351.61445263 25.2578092 350.18618565 25.25260693 348.75791931 25.24723816 C347.24707746 25.24882546 345.73623632 25.25128828 344.22539717 25.25455457 C340.06302606 25.26098703 335.90075176 25.25488532 331.73838699 25.24679029 C327.25369376 25.24022765 322.76901161 25.24515862 318.28431702 25.24867249 C309.49486134 25.25372123 300.70544321 25.24806449 291.91599219 25.23882218 C281.68920237 25.22845376 271.46242074 25.22850796 261.23562665 25.22899476 C242.99423469 25.22949572 224.75286025 25.22032454 206.51147461 25.20581055 C188.79369793 25.19172039 171.07593666 25.18463984 153.3581543 25.18530273 C151.72117219 25.18536267 151.72117219 25.18536267 150.05111974 25.18542381 C148.96172157 25.18546417 147.87232339 25.18550452 146.74991316 25.1855461 C126.60308532 25.18623526 106.45626406 25.18035008 86.30943836 25.17139288 C79.17344939 25.16837156 72.03746163 25.16731274 64.90147209 25.16686058 C56.21108266 25.16617971 47.5207043 25.16173267 38.83031958 25.15252777 C34.39268817 25.14789853 29.95507097 25.14486841 25.51743698 25.14612198 C21.46069555 25.14721242 17.40398562 25.14372695 13.34725077 25.13647345 C11.87423362 25.13465165 10.40121324 25.13453799 8.92819595 25.13624074 C6.93668786 25.13828912 4.94517616 25.13366281 2.95367336 25.12863445 C1.28952016 25.12757782 1.28952016 25.12757782 -0.4082523 25.12649983 C-3 25 -3 25 -5 24 C-3.62219467 15.91147224 -1.84897437 8.01222225 0 0 Z " fill="#FFFFFF" transform="translate(1387,608)"/>
<path d="M0 0 C4.35694134 0.03521836 8.71374018 0.01748405 13.07076645 0.00672424 C21.57051677 -0.00622431 30.06942832 0.02806878 38.56901206 0.07861314 C48.47543237 0.13547641 58.38170812 0.14248301 68.28826778 0.14720883 C85.95574158 0.15711687 103.6228414 0.20851935 121.29014206 0.28509033 C138.4278486 0.35930283 155.56536995 0.40875482 172.703228 0.42864501 C173.76154389 0.42987872 174.81985978 0.43111242 175.91024585 0.43238351 C180.16444459 0.43728673 184.41864339 0.44213617 188.6728423 0.4468859 C206.01570673 0.46690359 223.3585355 0.50591751 240.70135832 0.54810202 C244.65209696 0.55767455 248.60283622 0.56651388 252.5535779 0.57473671 C262.92285301 0.59665737 273.2920484 0.62473632 283.66124548 0.67128716 C287.94736201 0.69048511 292.23342873 0.70667247 296.51958275 0.71437347 C300.43941734 0.72157851 304.35909839 0.73802456 308.27886514 0.76202538 C309.69952138 0.76914191 311.12019907 0.77290108 312.54087313 0.7730333 C314.46634244 0.77375018 316.39179306 0.78784751 318.31720543 0.80267322 C319.38824221 0.80679243 320.459279 0.81091165 321.56277144 0.81515568 C324.31908715 1.07350957 325.97506184 1.6529733 328.32334518 3.07390869 C327.68904988 11.0026 325.62306597 17.02488594 323.32334518 25.07390869 C190.00334518 25.07390869 56.68334518 25.07390869 -80.67665482 25.07390869 C-76.28212398 20.67937785 -72.29850099 18.58844489 -66.80165482 15.88640869 C-65.95474075 15.45521728 -65.10782669 15.02402587 -64.23524857 14.57976806 C-62.33735105 13.63623413 -60.42128389 12.72871701 -58.49228859 11.85050952 C-56.50643446 10.94589556 -54.55943738 10.01202076 -52.62931943 8.99296594 C-35.47478191 -0.06211544 -18.86472133 -0.1962968 0 0 Z " fill="#FFFFFF" transform="translate(944.6766548156738,31.92609131336212)"/>
<path d="M0 0 C132 0 264 0 400 0 C395.27725762 4.72274238 390.58000467 8.45812417 385.10577583 12.16338158 C382.53558448 13.90924408 380.07452358 15.72247534 377.64665031 17.65969276 C364.60584195 27.35906075 349.9313592 26.45178716 334.40621972 26.33656478 C330.40727738 26.31787037 326.40880928 26.35716238 322.41000366 26.38851929 C314.59775836 26.440429 306.78643765 26.43859567 298.97408594 26.41644292 C292.61825546 26.39925567 286.2626905 26.40104256 279.90685654 26.4160347 C278.54473632 26.41919936 278.54473632 26.41919936 277.15509852 26.42242796 C275.30974342 26.42677027 273.46438839 26.43114382 271.61903344 26.43554826 C254.35371579 26.47431923 237.08891463 26.45049844 219.82363938 26.40597637 C205.04563262 26.36948807 190.26862572 26.39127895 175.49072266 26.45458984 C158.28604684 26.52829437 141.08199482 26.56209574 123.87716091 26.53576529 C122.03836569 26.53308339 120.19957039 26.53046542 118.36077499 26.52791214 C117.45630693 26.52665081 116.55183886 26.52538948 115.61996267 26.52408992 C109.28108877 26.51806246 102.94268983 26.54043488 96.60391617 26.5744133 C88.86504101 26.61527589 81.12757452 26.61300765 73.38877071 26.5571485 C69.44833113 26.52979997 65.51034143 26.52078584 61.56999969 26.56504822 C44.34087669 26.74407054 30.75236637 25.97025732 16.96516013 14.59539533 C14.17736267 12.33215022 11.23855239 10.30621275 8.29177773 8.25700414 C5.43311326 6.26097999 2.67898522 4.23448991 0 2 C0 1.34 0 0.68 0 0 Z " fill="#FFFFFF" transform="translate(118,608)"/>
<path d="M0 0 C1.12928826 0.00075944 2.25857652 0.00151888 3.42208564 0.00230134 C4.72189089 -0.00168076 6.02169615 -0.00566286 7.36088943 -0.00976562 C8.81705891 -0.00405877 10.27322768 0.00183244 11.72939575 0.00788796 C13.26554832 0.00701658 14.8017006 0.00526686 16.33785129 0.00270963 C20.57475574 -0.00178126 24.81155988 0.00626355 29.04845154 0.01626575 C33.61151292 0.024873 38.17456828 0.02198203 42.73763549 0.0204612 C50.64866123 0.01941062 58.55965407 0.02570529 66.47067153 0.03693688 C77.90878287 0.05316549 89.34687823 0.05839717 100.78499983 0.06091286 C119.34092688 0.06529412 137.89683638 0.07861489 156.4527539 0.09751809 C174.48204988 0.11586575 192.5113411 0.1300277 210.54064453 0.13853371 C212.20659989 0.13932188 212.20659989 0.13932188 213.90621091 0.14012598 C219.47774412 0.14273598 225.04927736 0.14526341 230.62081063 0.14774978 C276.86932862 0.16849569 323.11782746 0.20373292 369.36632812 0.24839699 C368.28854094 9.07801758 368.28854094 9.07801758 367.42882812 12.27574074 C367.16972656 13.24543801 367.16972656 13.24543801 366.90539062 14.23472512 C366.7275 14.87861184 366.54960937 15.52249856 366.36632812 16.18589699 C366.1884375 16.85685402 366.01054687 17.52781106 365.82726562 18.21910012 C364.50088516 23.11383995 364.50088516 23.11383995 363.36632812 24.24839699 C361.31780421 24.34628076 359.26583628 24.37210918 357.21497524 24.37144482 C356.23567611 24.37317559 356.23567611 24.37317559 355.23659316 24.37494132 C353.0217109 24.37761433 350.80689953 24.37308025 348.59202087 24.36865151 C346.9989847 24.36908707 345.4059486 24.3699617 343.81291288 24.37124068 C339.41415568 24.37348858 335.01542259 24.36946034 330.61666846 24.36446261 C325.88112714 24.36016251 321.14558728 24.36160422 316.41004455 24.36236489 C308.19835035 24.3628904 299.98666406 24.35974073 291.77497184 24.35412705 C279.9020987 24.34601577 268.0292294 24.34339721 256.15635378 24.34213906 C236.89553251 24.33994795 217.63471546 24.33328628 198.37389648 24.32383645 C179.65872742 24.31466384 160.94355951 24.30758227 142.22838867 24.30332863 C141.0756711 24.30306591 139.92295353 24.30280319 138.73530512 24.3025325 C132.95272426 24.30122751 127.17014339 24.29996379 121.38756251 24.2987206 C73.38048146 24.28834616 25.373405 24.27072625 -22.63367188 24.24839699 C-18.30588973 16.55358932 -18.30588973 16.55358932 -15.25085938 13.35386574 C-14.64113282 12.70868996 -14.03140625 12.06351418 -13.40320313 11.39878762 C-12.77800782 10.75103371 -12.1528125 10.10327981 -11.50867188 9.43589699 C-10.87574219 8.76880715 -10.2428125 8.10171731 -9.59070313 7.41441262 C-2.79332442 0.26345476 -2.79332442 0.26345476 0 0 Z " fill="#FFFFFF" transform="translate(1445.6336718797684,70.75160300731659)"/>
<path d="M0 0 C42.53192455 -0.22911703 85.06377763 -0.40521216 127.59619755 -0.51065329 C132.62272646 -0.52315968 137.64925415 -0.53610297 142.67578125 -0.54931641 C143.67643085 -0.55193951 144.67708044 -0.55456261 145.70805275 -0.55726521 C161.8896154 -0.60072439 178.07082112 -0.67953989 194.25217235 -0.77152796 C210.86792968 -0.86519455 227.48350066 -0.92061962 244.09951115 -0.94088495 C254.34458223 -0.95457521 264.58864433 -0.99773997 274.83340466 -1.07916467 C281.86805665 -1.132212 288.90219054 -1.14795916 295.93702781 -1.13501377 C299.9902343 -1.12863688 304.04168371 -1.13808905 308.09457397 -1.19205475 C338.82664028 -1.58090809 338.82664028 -1.58090809 350.44001961 8.64159894 C352.72236049 10.62901769 355.1578114 12.39582672 357.58888149 14.19562566 C360.10294087 16.07516997 362.54520317 18.04405808 365 20 C365.77859375 20.54785156 366.5571875 21.09570312 367.359375 21.66015625 C367.90078125 22.10230469 368.4421875 22.54445313 369 23 C369 23.66 369 24.32 369 25 C324.7439221 25.2747712 280.48793462 25.48616865 236.23117162 25.61278395 C231.00421068 25.62779212 225.77725141 25.64332402 220.55029297 25.65917969 C219.50971614 25.66232741 218.46913931 25.66547514 217.39702985 25.66871825 C200.55634049 25.72090949 183.71614356 25.81551015 166.87574616 25.92583355 C149.59104927 26.03812174 132.30660995 26.10471989 115.02156329 26.12906194 C104.35866495 26.14551358 93.69715851 26.19743689 83.03468874 26.2949976 C75.71922495 26.35851664 68.40447882 26.37758223 61.08875939 26.36201653 C56.86971359 26.35434249 52.65309632 26.36595175 48.43448448 26.4304657 C20.45712252 26.83732201 20.45712252 26.83732201 13.68848014 20.88340878 C11.460449 18.44173146 9.72604644 15.81292277 8 13 C6.43982917 11.12630166 4.85998954 9.26856858 3.25 7.4375 C0 3.41463415 0 3.41463415 0 0 Z " fill="#FFFFFF" transform="translate(1419,301)"/>
<path d="M0 0 C1.36310396 -0.00174562 2.72620661 -0.00525037 4.08930212 -0.01035666 C7.82477748 -0.01928247 11.55979234 -0.00332642 15.29520905 0.01675558 C19.32716143 0.03405095 23.35908845 0.02818241 27.3910675 0.02514648 C34.37333247 0.02305044 41.35544777 0.03558619 48.33767509 0.05809784 C58.43274219 0.09062449 68.52773702 0.10102554 78.62285084 0.10604981 C95.00199061 0.11480141 111.38105062 0.14141335 127.76014709 0.17926025 C143.66964825 0.21598381 159.57912773 0.24429389 175.48866272 0.2612915 C176.95998644 0.26286784 176.95998644 0.26286784 178.46103387 0.26447603 C183.38189874 0.26969623 188.30276376 0.27475105 193.22362888 0.27972364 C234.03851008 0.32118149 274.85330351 0.39162628 315.66810608 0.48101807 C314.5903189 9.31063866 314.5903189 9.31063866 313.73060608 12.50836182 C313.47150452 13.47805908 313.47150452 13.47805908 313.20716858 14.46734619 C313.02927795 15.11123291 312.85138733 15.75511963 312.66810608 16.41851807 C312.49021545 17.0894751 312.31232483 17.76043213 312.12904358 18.45172119 C310.80266312 23.34646103 310.80266312 23.34646103 309.66810608 24.48101807 C307.76548031 24.57867595 305.85916986 24.60473133 303.95403957 24.6040659 C302.70499291 24.60605694 301.45594624 24.60804799 300.16904968 24.61009938 C298.76496197 24.60724578 297.36087445 24.60430017 295.95678711 24.60127258 C294.47924534 24.60170815 293.00170364 24.6025828 291.52416235 24.60386175 C287.44464851 24.60610947 283.36516066 24.60208166 279.28565013 24.59708369 C274.8936703 24.59278333 270.50169204 24.59422532 266.10971069 24.59498596 C258.49388211 24.59551146 250.87806207 24.59236196 243.26223564 24.58674812 C232.25089698 24.57863663 221.23956246 24.57601826 210.22822113 24.57476013 C192.3650001 24.57256906 174.50178362 24.56590748 156.63856506 24.55645752 C139.28146894 24.54728483 121.92437406 24.5402033 104.567276 24.53594971 C103.49819431 24.53568698 102.42911261 24.53542426 101.32763451 24.53515358 C95.96460764 24.53384858 90.60158076 24.53258486 85.23855388 24.53134167 C40.71506812 24.52096734 -3.80841266 24.50334753 -48.33189392 24.48101807 C-48.33189392 23.82101807 -48.33189392 23.16101807 -48.33189392 22.48101807 C-39.68640579 15.58503849 -29.88666572 10.01091643 -20.33189392 4.48101807 C-19.41132926 3.80747913 -18.4907646 3.1339402 -17.54230404 2.439991 C-12.07136089 -0.65165494 -6.11589 -0.05656637 0 0 Z " fill="#FFFFFF" transform="translate(1509.3318939208984,32.51898193359375)"/>
<path d="M0 0 C3.65534258 0.01851528 7.31029014 -0.01527788 10.96553159 -0.04189694 C18.10398379 -0.08551381 25.24159942 -0.08093292 32.380118 -0.05820819 C38.18864347 -0.0405326 43.9969323 -0.04027193 49.80547071 -0.05209935 C51.05102575 -0.05460108 51.05102575 -0.05460108 52.32174353 -0.05715335 C54.00926262 -0.06060359 55.69678165 -0.06408723 57.3843006 -0.06760386 C73.16742179 -0.09835847 88.95007857 -0.0734257 104.7331443 -0.02961645 C118.23757806 0.00648861 131.74121257 -0.00749877 145.2455914 -0.05759823 C160.97358423 -0.11593589 176.70108869 -0.14114339 192.42918527 -0.1157369 C194.11070498 -0.11312195 195.79222477 -0.11055547 197.47374463 -0.10803807 C198.7143541 -0.10616642 198.7143541 -0.10616642 199.98002639 -0.10425695 C205.77181972 -0.09781057 211.5632656 -0.11475465 217.3549931 -0.14120686 C224.42768404 -0.17294663 231.49928978 -0.16851132 238.57189856 -0.11945149 C242.17187874 -0.09537558 245.77000779 -0.08643733 249.36993527 -0.12199795 C266.73584396 -0.28033594 279.26268998 1.33628456 293.77342343 11.19118106 C295.69103863 12.37095971 297.60983878 13.54882182 299.53123593 14.72243106 C300.99350347 15.7023271 302.44972318 16.69133599 303.89842343 17.69118106 C305.04504453 18.45688419 305.04504453 18.45688419 306.21482968 19.23805606 C311.63132438 22.90698295 311.63132438 22.90698295 312.77342343 25.19118106 C187.70342343 25.19118106 62.63342343 25.19118106 -66.22657657 25.19118106 C-63.44543291 22.4100374 -61.67059692 20.6542019 -58.49610782 18.71071231 C-57.77358829 18.26791934 -57.05106875 17.82512638 -56.30665469 17.36891544 C-55.55835391 16.91838809 -54.81005313 16.46786075 -54.03907657 16.00368106 C-53.34104922 15.57248966 -52.64302188 15.14129825 -51.92384219 14.69704044 C-50.38272931 13.760549 -48.82440799 12.85198659 -47.25299144 11.96728599 C-44.14373135 10.19400822 -44.14373135 10.19400822 -41.00678706 7.95684707 C-28.10665401 -0.49091715 -14.97748713 -0.11654532 0 0 Z " fill="#FFFFFF" transform="translate(200.22657656669617,31.80881893634796)"/>
<path d="M0 0 C44.30717525 -0.25177361 88.61427479 -0.44560393 132.92202437 -0.56171862 C138.1528514 -0.57547641 143.38367702 -0.58971395 148.61450195 -0.60424805 C150.1765476 -0.60857617 150.1765476 -0.60857617 151.77014972 -0.61299173 C168.63222295 -0.66085736 185.4938837 -0.74758784 202.35571223 -0.84868076 C219.65734981 -0.95154541 236.95877136 -1.01264597 254.26070219 -1.03497344 C264.93732993 -1.05006771 275.61279181 -1.09773911 286.28906066 -1.18708114 C293.61008489 -1.24522497 300.93050638 -1.26280207 308.25174474 -1.24851515 C312.47634018 -1.24146816 316.69889875 -1.25226917 320.92313194 -1.31126022 C324.79391732 -1.36492002 328.66130358 -1.36742805 332.53224773 -1.32988784 C333.92950632 -1.3252513 335.32697964 -1.3391149 336.72381746 -1.37371501 C342.63924631 -1.51167776 347.1763188 -1.57866375 351.78235352 2.40853536 C354.07197971 5.17738871 356.06183553 7.97813763 358 11 C358.93670629 12.23097667 359.88378689 13.45423685 360.84765625 14.6640625 C361.57855469 15.64117187 362.30945312 16.61828125 363.0625 17.625 C363.81660156 18.62789063 364.57070312 19.63078125 365.34765625 20.6640625 C367 23 367 23 367 24 C324.73991624 24.25206702 282.47991961 24.44575263 240.21923232 24.56171862 C235.22403451 24.57547553 230.22883818 24.58971316 225.23364258 24.60424805 C224.23923652 24.60713346 223.24483047 24.61001888 222.22029089 24.61299173 C206.14282683 24.66078785 190.06579774 24.74747973 173.98859126 24.84868076 C157.47792514 24.95173941 140.96748599 25.01268686 124.45651144 25.03497344 C114.27737238 25.05002763 104.09946299 25.09747965 93.92070269 25.18708114 C86.92993785 25.2454649 79.93980377 25.26274818 72.94881315 25.24851515 C68.92166031 25.24150514 64.89664762 25.25184023 60.86988068 25.31126022 C30.35724233 25.73956076 30.35724233 25.73956076 17.486534 14.30754912 C15.39640563 12.4690809 13.12916548 10.91458357 10.83984375 9.3359375 C9.53463346 8.35482291 8.2335255 7.3682158 6.9375 6.375 C6.25107422 5.86066406 5.56464844 5.34632813 4.85742188 4.81640625 C3.21585628 3.57334259 1.60409853 2.29105104 0 1 C0 0.67 0 0.34 0 0 Z " fill="#FFFFFF" transform="translate(1456,340)"/>
<path d="M0 0 C34.68398872 -0.25266581 69.36776466 -0.44605344 104.05247737 -0.56171862 C108.16226506 -0.57547375 112.27205094 -0.58971155 116.38183594 -0.60424805 C117.60893341 -0.60857617 117.60893341 -0.60857617 118.86082074 -0.61299173 C132.04683614 -0.66064715 145.23231532 -0.74725894 158.41801432 -0.84868076 C171.98278487 -0.95213557 185.54727775 -1.01276933 199.11242652 -1.03497344 C207.45983922 -1.04994692 215.80573563 -1.09694618 224.15268061 -1.18708114 C229.90355724 -1.24595764 235.65366884 -1.26264039 241.40482381 -1.24851515 C244.70703745 -1.24157763 248.00455948 -1.25726875 251.306633 -1.31126022 C271.1057793 -1.61868413 286.14797309 2.7986872 304 11 C306.41872087 12.07720366 308.83862187 13.15176148 311.2597084 14.22363758 C327.38460099 21.38460099 327.38460099 21.38460099 330 24 C224.4 24 118.8 24 10 24 C0 4 0 4 0 0 Z " fill="#FFFFFF" transform="translate(1398,263)"/>
<path d="M0 0 C103.62 0 207.24 0 314 0 C322 17 322 17 324 24 C290.09739313 24.25273714 256.19502394 24.44608904 222.29168158 24.56171862 C218.27331027 24.57547354 214.25494081 24.58971136 210.23657227 24.60424805 C209.03678379 24.60857617 209.03678379 24.60857617 207.81275716 24.61299173 C194.92487063 24.66063049 182.03753345 24.74723264 169.14997093 24.84868076 C155.88916971 24.95218276 142.6286527 25.01277907 129.36746424 25.03497344 C121.93414673 25.04860719 114.50197709 25.08121197 107.06907082 25.16303062 C48.57148315 25.78788514 48.57148315 25.78788514 27.83293724 14.50358009 C23.47709415 12.19171844 18.95307172 10.28570514 14.4321413 8.32523632 C1.29890718 2.59781435 1.29890718 2.59781435 0 0 Z " fill="#FFFFFF" transform="translate(1518,378)"/>
<path d="M0 0 C84.15 0 168.3 0 255 0 C255 8.25 255 16.5 255 25 C170.85 25 86.7 25 0 25 C0 16.75 0 8.5 0 0 Z " fill="#FFFFFF" transform="translate(1040,301)"/>
<path d="M0 0 C0.91930292 0.00151888 1.83860584 0.00303776 2.78576642 0.00460267 C3.84720843 -0.00336152 4.90865043 -0.01132572 6.00225735 -0.01953125 C7.17247616 -0.00787988 8.34269497 0.00377148 9.54837495 0.01577592 C10.78825459 0.01235822 12.02813423 0.00894052 13.30558598 0.00541925 C16.75382181 -0.00004276 20.20115541 0.01250406 23.6492824 0.0325315 C27.36501089 0.04976892 31.08071039 0.04396244 34.7964676 0.0409224 C41.23641739 0.03882268 47.67620536 0.05139677 54.11611444 0.07387376 C63.42716998 0.1063507 72.7381471 0.11679635 82.04925314 0.12182572 C97.15502795 0.13058515 112.26071647 0.15721828 127.36644441 0.19503617 C142.04222126 0.23173952 156.71797469 0.26005947 171.39378816 0.27706742 C172.75019539 0.27864376 172.75019539 0.27864376 174.13400479 0.28025195 C178.67036633 0.28547201 183.20672804 0.29052687 187.74308985 0.29549956 C225.39030739 0.33698177 263.0374268 0.4074478 300.68455964 0.49679399 C300.68455964 0.82679399 300.68455964 1.15679399 300.68455964 1.49679399 C299.92127351 1.59178178 299.15798738 1.68676957 298.37157136 1.78463578 C261.2567966 5.94374952 261.2567966 5.94374952 226.71390134 19.19923329 C215.20347234 25.52154161 204.68199536 25.4495436 191.77660066 25.29147172 C189.49855563 25.28949365 187.22050615 25.29061245 184.9424637 25.29456925 C178.80058782 25.29656582 172.65968199 25.25560439 166.51803023 25.20655155 C160.08392116 25.16259333 153.64978631 25.15866477 147.21555024 25.1503737 C136.4298839 25.13113567 125.64461252 25.08750571 114.85912019 25.02487016 C103.75757543 24.96046682 92.65612693 24.91099186 81.55443269 24.88131547 C80.52535 24.87855687 80.52535 24.87855687 79.47547776 24.87574255 C76.03321742 24.86660628 72.5909564 24.85776056 69.14869493 24.84905922 C40.66041184 24.77667175 12.17249961 24.65301238 -16.31544036 24.49679399 C-15.12758742 21.47702066 -13.93227749 18.6488777 -12.25684661 15.86788774 C-11.87077239 15.22529008 -11.48469817 14.58269242 -11.08692473 13.92062211 C-10.48847747 12.93738969 -10.48847747 12.93738969 -9.87794036 11.93429399 C-9.4828427 11.27493852 -9.08774504 10.61558305 -8.68067473 9.93624711 C-7.57695326 8.10895449 -6.47629838 6.28839568 -5.31544036 4.49679399 C-4.90224317 3.81081643 -4.48904598 3.12483888 -4.06332767 2.41807413 C-2.31544036 0.49679399 -2.31544036 0.49679399 0 0 Z " fill="#FFFFFF" transform="translate(763.3154403567314,147.50320601463318)"/>
<path d="M0 0 C84.15 0 168.3 0 255 0 C255 7.92 255 15.84 255 24 C170.85 24 86.7 24 0 24 C0 16.08 0 8.16 0 0 Z " fill="#FFFFFF" transform="translate(1040,378)"/>
<path d="M0 0 C84.15 0 168.3 0 255 0 C255 7.92 255 15.84 255 24 C170.85 24 86.7 24 0 24 C0 16.08 0 8.16 0 0 Z " fill="#FFFFFF" transform="translate(1040,340)"/>
<path d="M0 0 C28.35702566 -0.25155994 56.71390962 -0.44592441 85.07183488 -0.56171862 C88.42842561 -0.57547451 91.78501413 -0.58971224 95.14160156 -0.60424805 C96.14385167 -0.60857617 96.14385167 -0.60857617 97.16634925 -0.61299173 C107.95040107 -0.66070765 118.73380031 -0.74735331 129.51746647 -0.84868076 C140.60294208 -0.95196645 151.68806027 -1.01191191 162.77399218 -1.03497344 C168.99256989 -1.04925727 175.20967335 -1.08258751 181.42777634 -1.16303062 C187.29363956 -1.23829432 193.1574367 -1.26060914 199.02373695 -1.24418449 C201.16421723 -1.24718436 203.30477431 -1.26871156 205.44483376 -1.31126022 C220.10864576 -1.58824159 229.3431202 1.05328556 241.22245145 9.75069749 C244.91617477 12.34673224 249.02196541 14.15436975 253.125 16 C253.88296875 16.35449219 254.6409375 16.70898438 255.421875 17.07421875 C260.20513111 19.28503644 265.04697931 21.20298569 270 23 C270 23.33 270 23.66 270 24 C184.86 24 99.72 24 12 24 C0 1 0 1 0 0 Z " fill="#FFFFFF" transform="translate(735,493)"/>
<path d="M0 0 C76.56 0 153.12 0 232 0 C235.375 14.625 235.375 14.625 235.6875 19.8125 C235.75324219 20.80894531 235.81898438 21.80539062 235.88671875 22.83203125 C235.94279297 23.90517578 235.94279297 23.90517578 236 25 C210.73070822 25.16359425 185.46149591 25.28699691 160.19178104 25.3626852 C148.45832163 25.39876433 136.72519144 25.44794464 124.99194336 25.52807617 C114.76403422 25.59789372 104.53636353 25.64301888 94.30822271 25.65861946 C88.89343997 25.66773743 83.47933936 25.68913327 78.06477547 25.7401104 C72.96501391 25.78773331 67.86621342 25.80225873 62.76625061 25.79175377 C60.89779876 25.79367467 59.02931375 25.80753454 57.16105461 25.83443832 C41.29508601 26.05164898 41.29508601 26.05164898 35.55589294 21.598526 C34.35837775 20.41121437 33.17174896 19.21274726 32 18 C29.55755234 16.36875516 27.01800677 14.96293756 24.4375 13.5625 C23.76783203 13.1919751 23.09816406 12.8214502 22.40820312 12.43969727 C15.05054819 8.40753125 7.53884226 4.67919563 0 1 C0 0.67 0 0.34 0 0 Z " fill="#FFFFFF" transform="translate(1614,416)"/>
<path d="M0 0 C25.70444046 -0.18717853 51.40877824 -0.32810072 77.11376381 -0.41449738 C89.05003313 -0.4556856 100.98587811 -0.51180465 112.921875 -0.60351562 C123.329654 -0.68344608 133.73712557 -0.73491144 144.14520299 -0.75270796 C149.65245286 -0.7631052 155.1588235 -0.78740683 160.66579056 -0.84584045 C165.85838673 -0.90048749 171.04974876 -0.91682348 176.24260521 -0.90486145 C178.1396107 -0.90704703 180.03666111 -0.92275526 181.93341637 -0.9536438 C194.75180425 -1.15200097 202.36625002 0.71806721 213 8 C216.53267493 9.86250372 220.13191587 11.56044919 223.75 13.25 C225.03197266 13.86101562 225.03197266 13.86101562 226.33984375 14.484375 C231.50876442 16.92416812 236.71444988 19.11129607 242.07519531 21.09667969 C244 22 244 22 245 24 C165.8 24 86.6 24 5 24 C3.56071534 20.40178836 2.69679669 18.01950517 2.1484375 14.35546875 C2.01953125 13.51435547 1.890625 12.67324219 1.7578125 11.80664062 C1.63148437 10.94232422 1.50515625 10.07800781 1.375 9.1875 C1.2409375 8.30384766 1.106875 7.42019531 0.96875 6.50976562 C0.6404429 4.3405937 0.31770124 2.17074622 0 0 Z " fill="#FFFFFF" transform="translate(1388,225)"/>
<path d="M0 0 C75.57 0 151.14 0 229 0 C238 17 238 17 240 24 C213.20074999 24.23378216 186.40165319 24.41003218 159.60158825 24.51812172 C147.15730352 24.56964767 134.713653 24.63987363 122.26977539 24.75439453 C111.42144427 24.85418389 100.57357251 24.91860982 89.72479516 24.94088495 C83.98214704 24.95390275 78.24081288 24.98441277 72.49858665 25.05730057 C67.08833187 25.12541514 61.67992616 25.14606913 56.26928329 25.13107681 C54.28874329 25.1338175 52.30813851 25.15357224 50.3279705 25.19205475 C33.52940043 25.50237617 33.52940043 25.50237617 26.53877258 19.13388062 C25.02168456 17.42627729 23.50839486 15.71528719 22 14 C18.97157233 11.79622573 15.81296628 9.91870943 12.5625 8.0625 C11.02115717 7.15921929 9.48075835 6.25432537 7.94140625 5.34765625 C7.27826416 4.96617432 6.61512207 4.58469238 5.93188477 4.19165039 C3.8712357 2.92057392 1.93691053 1.4526829 0 0 Z " fill="#FFFFFF" transform="translate(366,148)"/>
<path d="M0 0 C70.62 0 141.24 0 214 0 C214 0.66 214 1.32 214 2 C212.44406999 3.36933879 210.82702659 4.66944657 209.1875 5.9375 C202.23658914 11.49282643 194.95911482 17.56132777 190 25 C187.30061805 25.29435869 184.8304133 25.39117691 182.12875366 25.36076355 C181.30625079 25.36332682 180.48374791 25.3658901 179.63632071 25.36853105 C176.86461037 25.37349479 174.09343796 25.35693364 171.32177734 25.34057617 C169.34121209 25.33973046 167.36064589 25.34020395 165.38008118 25.34190369 C159.98979393 25.34276724 154.59970545 25.32508332 149.20946455 25.30418181 C143.58135444 25.28547488 137.95324017 25.28366931 132.32510376 25.28010559 C121.66137848 25.27076749 110.99774507 25.24612988 100.33406031 25.21605712 C88.19641014 25.18256795 76.05875566 25.16604091 63.92107081 25.15097082 C38.94732954 25.11958183 13.97366991 25.06678712 -11 25 C-8.37721146 15.82024012 -4.47139628 8.94279255 0 0 Z " fill="#FFFFFF" transform="translate(739,186)"/>
<path d="M0 0 C73.92 0 147.84 0 224 0 C219.96729915 3.02452564 215.78378554 5.49289319 211.3671875 7.89257812 C207.89792626 9.89323403 204.96240099 11.95912607 202.20828819 14.87350845 C195.01914775 22.25477538 189.38652978 25.27699362 179.03801322 25.4979701 C176.28204738 25.49286907 173.53100864 25.42824221 170.77587891 25.36230469 C168.77384141 25.35891312 166.77178902 25.36083284 164.76976013 25.36761475 C159.37479969 25.37103573 153.98308896 25.30086049 148.58887911 25.21672726 C142.93697705 25.14133264 137.28498727 25.13463303 131.63265991 25.12042236 C120.94741592 25.08323458 110.26365828 24.98491362 99.57906663 24.86422849 C87.40747939 24.72975363 75.23581837 24.66403452 63.0636723 24.60388327 C38.04162652 24.47870177 13.02089682 24.26784899 -12 24 C-9.17157288 15.51471863 -4.34372243 7.81870037 0 0 Z " fill="#FFFFFF" transform="translate(49,148)"/>
<path d="M0 0 C26.34687496 -0.18686219 52.69365064 -0.327946 79.04105473 -0.41449738 C91.27458405 -0.45575253 103.5077017 -0.51200009 115.7409668 -0.60351562 C126.40321086 -0.68324054 137.0651568 -0.73486282 147.72769064 -0.75270796 C153.37387491 -0.76313989 159.0192063 -0.78766376 164.66511726 -0.84584045 C169.97998007 -0.900162 175.29363916 -0.91688857 180.6087532 -0.90486145 C182.55868638 -0.90706148 184.50865999 -0.92296457 186.45835304 -0.9536438 C201.22346368 -1.17457293 201.22346368 -1.17457293 205.65109062 1.75279236 C207.41603997 3.75622594 208.68437632 5.6885719 210 8 C215.70778638 13.22543824 221.87633696 17.78192873 228.41796875 21.90625 C228.94003906 22.2671875 229.46210938 22.628125 230 23 C230 23.33 230 23.66 230 24 C157.73 24 85.46 24 11 24 C0 2 0 2 0 0 Z " fill="#FFFFFF" transform="translate(30,493)"/>
<path d="M0 0 C26.1644406 -0.3038628 52.3286163 -0.53301395 78.49446678 -0.67355824 C90.64420983 -0.74055444 102.79285577 -0.83186845 114.94189453 -0.98071289 C125.53275657 -1.11040526 136.12282404 -1.19418382 146.71445811 -1.22315043 C152.32168053 -1.2400806 157.92663019 -1.27977688 163.53312302 -1.37449074 C168.81486866 -1.4629923 174.09341489 -1.48990303 179.3758316 -1.47039986 C181.31010229 -1.47396527 183.24448408 -1.49968361 185.17811203 -1.54967117 C199.39692031 -1.89910238 199.39692031 -1.89910238 203.71889162 1.25403428 C206.25804014 3.79725405 208.17998995 6.56177674 210.00382423 9.64661121 C212.10895396 13.18303247 214.3160904 15.76270877 217.125 18.75 C221 22.90657439 221 22.90657439 221 24 C150.38 24 79.76 24 7 24 C0 4 0 4 0 0 Z " fill="#FFFFFF" transform="translate(721,455)"/>
<path d="M0 0 C1.97203903 0.00310704 3.94409077 0.00135288 5.91612244 -0.00486755 C11.2428767 -0.00801072 16.56688006 0.05643891 21.8929975 0.13344598 C27.46887059 0.20243334 33.04481396 0.20868936 38.62104797 0.22172546 C49.16816189 0.25585025 59.71401449 0.34602799 70.26057416 0.45656985 C82.27251387 0.57972495 94.28451535 0.64005274 106.29692972 0.69521964 C130.99593305 0.81005119 155.69381855 1.00340452 180.3918457 1.2487793 C178.66597419 9.87813686 173.49053192 17.46127548 169.3918457 25.2487793 C98.1118457 25.2487793 26.8318457 25.2487793 -46.6081543 25.2487793 C-41.6081543 21.2487793 -41.6081543 21.2487793 -39.1003418 19.27612305 C-38.23666992 18.58647461 -37.37299805 17.89682617 -36.4831543 17.1862793 C-35.55553441 16.44668126 -34.62791452 15.70708323 -33.67218494 14.94507313 C-31.56484815 13.17998973 -30.07323024 11.58450608 -28.317523 9.40425396 C-20.18917195 -0.57367745 -12.26166278 -0.27149936 0 0 Z " fill="#FFFFFF" transform="translate(426.608154296875,491.751220703125)"/>
<path d="M0 0 C66 0 132 0 200 0 C208 22 208 22 208 25 C143.98 25 79.96 25 14 25 C10.04 18.07 10.04 18.07 6 11 C3.54877517 7.31317894 3.54877517 7.31317894 1.03125 3.671875 C0 2 0 2 0 0 Z " fill="#FFFFFF" transform="translate(413,186)"/>
<path d="M0 0 C97.35 0 194.7 0 295 0 C276.03119029 18.96880971 219.44906356 21.09901528 194 23 C192.39620483 23.12810059 192.39620483 23.12810059 190.76000977 23.25878906 C126.0202482 27.92577271 61.94074836 20.06205954 0 1 C0 0.67 0 0.34 0 0 Z " fill="#FFFFFF" transform="translate(1422,647)"/>
<path d="M0 0 C63.03 0 126.06 0 191 0 C202 23 202 23 202 25 C136.99 25 71.98 25 5 25 C1 10 1 10 0 0 Z " fill="#FFFFFF" transform="translate(711,416)"/>
<path d="M0 0 C65.01 0 130.02 0 197 0 C192.50484526 7.86652079 192.50484526 7.86652079 190.45703125 11.11328125 C190.02326172 11.80357422 189.58949219 12.49386719 189.14257812 13.20507812 C188.70365234 13.90052734 188.26472656 14.59597656 187.8125 15.3125 C186.92236354 16.72474797 186.03300287 18.13748531 185.14453125 19.55078125 C184.56215698 20.47370972 184.56215698 20.47370972 183.96801758 21.4152832 C182.94413983 23.04121424 182.94413983 23.04121424 182 25 C118.97 25 55.94 25 -9 25 C-8 19 -8 19 0 0 Z " fill="#FFFFFF" transform="translate(30,186)"/>
<path d="M0 0 C61.71 0 123.42 0 187 0 C194 21 194 21 194 25 C131.63 25 69.26 25 5 25 C1 10 1 10 0 0 Z " fill="#FFFFFF" transform="translate(7,416)"/>
<path d="M0 0 C1.08120531 0.00436926 1.08120531 0.00436926 2.18425316 0.00882679 C2.94464832 0.00797237 3.70504348 0.00711794 4.48848093 0.00623763 C7.05583184 0.00458053 9.62311851 0.01010792 12.19046348 0.01555592 C14.02309998 0.01583777 15.8557366 0.0156801 17.68837303 0.01511341 C22.67989996 0.01482535 27.67140309 0.02072354 32.66292447 0.02768737 C37.87331041 0.0339194 43.08369683 0.03452459 48.29408592 0.03571278 C58.16802959 0.03882654 68.04196225 0.04704053 77.91590106 0.05706227 C89.15391935 0.06822202 100.39193815 0.07373351 111.6299606 0.0787577 C134.75421963 0.08922311 157.87846887 0.10682341 181.00271934 0.12908131 C180.73979951 2.04684953 180.46680265 3.96323594 180.19021934 5.87908131 C179.96398887 7.48009693 179.96398887 7.48009693 179.73318809 9.11345631 C178.75217487 14.50640601 177.33216623 19.81129376 176.00271934 25.12908131 C113.63271934 25.12908131 51.26271934 25.12908131 -12.99728066 25.12908131 C-12.00728066 21.82908131 -11.01728066 18.52908131 -9.99728066 15.12908131 C-8.94262166 11.40140726 -7.90111101 7.67039292 -6.86446816 3.93767506 C-5.49393421 -0.50112633 -4.43909156 0.01359965 0 0 Z " fill="#FFFFFF" transform="translate(449.9972806572914,415.8709186911583)"/>
<path d="M0 0 C106.59 0 213.18 0 323 0 C323 0.33 323 0.66 323 1 C291.81781652 7.65918561 260.62443589 13.56989142 228.9375 17.25 C227.64553711 17.40114258 226.35357422 17.55228516 225.02246094 17.70800781 C202.37076134 20.19986352 179.77798416 21.33445289 156.99145508 21.26074219 C153.06771371 21.25001425 149.1444309 21.26072432 145.22070312 21.2734375 C122.56148118 21.28642607 99.92482658 20.20719074 77.4375 17.3125 C76.13997803 17.14661377 74.84245605 16.98072754 73.50561523 16.80981445 C48.59774512 13.51360352 24.0137911 8.40481915 0 1 C0 0.67 0 0.34 0 0 Z " fill="#FFFFFF" transform="translate(915,647)"/>
<path d="M0 0 C63.36 0 126.72 0 192 0 C194.97 5.61 197.94 11.22 201 17 C202.98 20.465 202.98 20.465 205 24 C139.99 24 74.98 24 8 24 C1 5 1 5 0 0 Z " fill="#FFFFFF" transform="translate(16,455)"/>
<path d="M0 0 C61.38 0 122.76 0 186 0 C187.63560804 8.17804022 187 16.66000266 187 25 C125.95 25 64.9 25 2 25 C0.62563146 16.75378875 0.43938961 8.34840258 0 0 Z " fill="#FFFFFF" transform="translate(452,301)"/>
<path d="M0 0 C61.38 0 122.76 0 186 0 C185.34 8.25 184.68 16.5 184 25 C122.95 25 61.9 25 -1 25 C-1 13 -1 13 0 0 Z " fill="#FFFFFF" transform="translate(1,301)"/>
<path d="M0 0 C88.11 0 176.22 0 267 0 C263.07544578 3.92455422 256.94602286 4.96203726 251.75 6.6875 C250.75110245 7.02022919 250.75110245 7.02022919 249.73202515 7.35968018 C226.35576811 15.09132072 202.44534278 20.09624006 178 23 C177.05108887 23.11714355 176.10217773 23.23428711 175.12451172 23.35498047 C115.46172843 30.39567013 55.95510047 22.28327942 0 1 C0 0.67 0 0.34 0 0 Z " fill="#FFFFFF" transform="translate(183,647)"/>
<path d="M0 0 C62.7 0 125.4 0 190 0 C188 10 188 10 183 24 C118.65 24 54.3 24 -12 24 C-10.77233258 20.93083144 -9.6691047 18.22601253 -8.125 15.37109375 C-7.77953125 14.72849609 -7.4340625 14.08589844 -7.078125 13.42382812 C-6.72234375 12.76833984 -6.3665625 12.11285156 -6 11.4375 C-3.95402081 7.64576683 -1.92720685 3.85441369 0 0 Z " fill="#FFFFFF" transform="translate(431,455)"/>
<path d="M0 0 C61.05 0 122.1 0 185 0 C184.34 8.25 183.68 16.5 183 25 C121.95 25 60.9 25 -2 25 C-1.34 16.75 -0.68 8.5 0 0 Z " fill="#FFFFFF" transform="translate(706,301)"/>
<path d="M0 0 C69.63 0 139.26 0 211 0 C208.23847337 1.84101776 205.56139531 3.05502273 202.50366211 4.30834961 C190.57760078 9.11694518 190.57760078 9.11694518 181.69629574 18.06597137 C180.01778454 20.66865986 178.56179292 22.23153383 176 24 C170.20514993 25.19125702 164.48333757 25.01238158 158.59008789 24.90820312 C156.80582786 24.90594506 155.0215604 24.90721607 153.23730469 24.91174316 C148.4045741 24.9140352 143.57343738 24.86705874 138.74107671 24.8111515 C133.68695904 24.76108369 128.63280335 24.75643718 123.57847595 24.74694824 C114.01250451 24.72209991 104.44726596 24.65647349 94.88161701 24.57615232 C83.98938355 24.48668072 73.09711478 24.44273402 62.20460522 24.40258884 C39.80266409 24.31900598 17.40137314 24.17832496 -5 24 C-4.73801138 22.06128421 -4.46479916 20.12408517 -4.1875 18.1875 C-4.03667969 17.10855469 -3.88585938 16.02960938 -3.73046875 14.91796875 C-2.79100413 9.87902216 -1.3486808 4.94516295 0 0 Z " fill="#FFFFFF" transform="translate(1395,148)"/>
<path d="M0 0 C1.13373311 0.00436926 1.13373311 0.00436926 2.29036993 0.00882679 C3.48609063 0.00754515 3.48609063 0.00754515 4.70596731 0.00623763 C7.39769296 0.00458039 10.08935734 0.01010815 12.78107733 0.01555592 C14.70238265 0.01583776 16.62368808 0.01568011 18.54499334 0.01511341 C23.77824765 0.01482533 29.01147926 0.02072372 34.24472827 0.02768737 C39.70735921 0.03391921 45.16999062 0.03452457 50.63262457 0.03571278 C60.98468355 0.0388266 71.33673204 0.04704067 81.68878639 0.05706227 C93.47092983 0.06822184 105.25307376 0.07373346 117.03522116 0.0787577 C141.27920704 0.08922324 165.52318359 0.10682366 189.76716131 0.12908131 C189.24766912 1.02369068 188.72817693 1.91830006 188.19294256 2.84001881 C187.48836518 4.06128628 186.78394678 5.28264547 186.07966131 6.50408131 C185.57015936 7.37999928 185.57015936 7.37999928 185.05036443 8.27361256 C182.05633148 13.47819322 179.46755898 18.72828598 176.76716131 24.12908131 C114.39716131 24.12908131 52.02716131 24.12908131 -12.23283869 24.12908131 C-11.0413604 18.17168985 -9.95961009 12.77456118 -8.17033869 7.06658131 C-7.82873713 5.96185475 -7.48713557 4.85712818 -7.13518244 3.71892506 C-5.63832524 -0.57724951 -4.35329604 0.01272306 0 0 Z " fill="#FFFFFF" transform="translate(728.2328386902809,224.8709186911583)"/>
<path d="M0 0 C63.36 0 126.72 0 192 0 C197 21 197 21 197 24 C134.63 24 72.26 24 8 24 C5.36 16.08 2.72 8.16 0 0 Z " fill="#FFFFFF" transform="translate(434,225)"/>
<path d="M0 0 C59.73 0 119.46 0 181 0 C179 13 179 13 176 24 C110 24 44 24 -24 24 C-20.80231617 21.44185293 -18.03715249 19.34410081 -14.625 17.25 C-7.65676388 12.65096416 -3.7212378 7.44247561 0 0 Z " fill="#FFFFFF" transform="translate(1668,493)"/>
<path d="M0 0 C61.71 0 123.42 0 187 0 C192 21 192 21 192 24 C129.63 24 67.26 24 3 24 C0 3 0 3 0 0 Z " fill="#FFFFFF" transform="translate(705,378)"/>
<path d="M0 0 C62.37 0 124.74 0 189 0 C186.36 7.92 183.72 15.84 181 24 C119.29 24 57.58 24 -6 24 C-4 13 -4 13 0 0 Z " fill="#FFFFFF" transform="translate(16,225)"/>
<path d="M0 0 C58.74 0 117.48 0 178 0 C178.33 4.29 178.66 8.58 179 13 C180.46892296 17.08273179 180.46892296 17.08273179 182.16015625 21.07421875 C183 23 183 23 183 25 C122.28 25 61.56 25 -1 25 C-1 6 -1 6 0 0 Z " fill="#FFFFFF" transform="translate(1388,186)"/>
<path d="M0 0 C62.04 0 124.08 0 188 0 C190 11 190 11 191 24 C129.29 24 67.58 24 4 24 C2.68 16.08 1.36 8.16 0 0 Z " fill="#FFFFFF" transform="translate(446,263)"/>
<path d="M0 0 C61.38 0 122.76 0 186 0 C187.98 11.88 187.98 11.88 190 24 C128.29 24 66.58 24 3 24 C2.01 16.08 1.02 8.16 0 0 Z " fill="#FFFFFF" transform="translate(1,378)"/>
<path d="M0 0 C61.71 0 123.42 0 187 0 C185 10 185 10 181 24 C119.95 24 58.9 24 -4 24 C-2.8530233 15.97116308 -1.5905705 7.95285252 0 0 Z " fill="#FFFFFF" transform="translate(712,263)"/>
<path d="M0 0 C1.08120531 0.00436926 1.08120531 0.00436926 2.18425316 0.00882679 C2.94464832 0.00797237 3.70504348 0.00711794 4.48848093 0.00623763 C7.05583184 0.00458053 9.62311851 0.01010792 12.19046348 0.01555592 C14.02309998 0.01583777 15.8557366 0.0156801 17.68837303 0.01511341 C22.67989996 0.01482535 27.67140309 0.02072354 32.66292447 0.02768737 C37.87331041 0.0339194 43.08369683 0.03452459 48.29408592 0.03571278 C58.16802959 0.03882654 68.04196225 0.04704053 77.91590106 0.05706227 C89.15391935 0.06822202 100.39193815 0.07373351 111.6299606 0.0787577 C134.75421983 0.08922311 157.87846851 0.10702377 181.00271934 0.12908131 C179.68271934 8.04908131 178.36271934 15.96908131 177.00271934 24.12908131 C115.62271934 24.12908131 54.24271934 24.12908131 -8.99728066 24.12908131 C-5.85234779 0.01792931 -5.85234779 0.01792931 0 0 Z " fill="#FFFFFF" transform="translate(11.997280657291412,262.8709186911583)"/>
<path d="M0 0 C61.05 0 122.1 0 185 0 C185 11 185 11 183 24 C121.62 24 60.24 24 -3 24 C-2 16 -1 8 0 0 Z " fill="#FFFFFF" transform="translate(451,378)"/>
<path d="M0 0 C61.05 0 122.1 0 185 0 C185.33 7.92 185.66 15.84 186 24 C124.62 24 63.24 24 0 24 C0 16.08 0 8.16 0 0 Z " fill="#FFFFFF" transform="translate(0,340)"/>
<path d="M0 0 C61.05 0 122.1 0 185 0 C185 13 185 13 184 24 C122.95 24 61.9 24 -1 24 C-1 11 -1 11 0 0 Z " fill="#FFFFFF" transform="translate(454,340)"/>
<path d="M0 0 C60.72 0 121.44 0 184 0 C185.94701045 7.78804178 185.59911431 15.98228617 186 24 C124.95 24 63.9 24 1 24 C-1.5320172 16.40394839 0 8.00694143 0 0 Z " fill="#FFFFFF" transform="translate(704,340)"/>
<path d="M0 0 C60.39 0 120.78 0 183 0 C183 7.92 183 15.84 183 24 C123.93 24 64.86 24 4 24 C4 21.36 4 18.72 4 16 C3.42874559 12.76217688 3.42874559 12.76217688 2.5625 9.75 C2.16224609 8.25726563 2.16224609 8.25726563 1.75390625 6.734375 C1.50511719 5.83203125 1.25632812 4.9296875 1 4 C0.67 2.68 0.34 1.36 0 0 Z " fill="#FFFFFF" transform="translate(1668,455)"/>
<path d="M0 0 C55.44 0 110.88 0 168 0 C168 8.25 168 16.5 168 25 C112.56 25 57.12 25 0 25 C0 16.75 0 8.5 0 0 Z " fill="#FFFFFF" transform="translate(1127,416)"/>
<path d="M0 0 C55.44 0 110.88 0 168 0 C168 7.92 168 15.84 168 24 C112.56 24 57.12 24 0 24 C0 16.08 0 8.16 0 0 Z " fill="#FFFFFF" transform="translate(1127,493)"/>
<path d="M0 0 C55.44 0 110.88 0 168 0 C168 7.92 168 15.84 168 24 C112.56 24 57.12 24 0 24 C0 16.08 0 8.16 0 0 Z " fill="#FFFFFF" transform="translate(1127,455)"/>
<path d="M0 0 C84.15 0 168.3 0 255 0 C255 4.29 255 8.58 255 13 C170.85 13 86.7 13 0 13 C0 8.71 0 4.42 0 0 Z " fill="#FFFFFF" transform="translate(1040,274)"/>
<path d="M0 0 C1.0533252 0.25765137 2.10665039 0.51530273 3.19189453 0.78076172 C4.1920459 1.03744629 5.19219727 1.29413086 6.22265625 1.55859375 C7.11863525 1.78732178 8.01461426 2.0160498 8.93774414 2.25170898 C11 3 11 3 12 5 C-69.51 5 -151.02 5 -235 5 C-234 3 -234 3 -231.97241211 2.2097168 C-231.08303955 1.95875244 -230.19366699 1.70778809 -229.27734375 1.44921875 C-227.7756665 1.02334473 -227.7756665 1.02334473 -226.24365234 0.58886719 C-224.60710693 0.14269043 -224.60710693 0.14269043 -222.9375 -0.3125 C-221.8129541 -0.62155273 -220.6884082 -0.93060547 -219.52978516 -1.24902344 C-148.50723375 -20.40139513 -71.08127784 -17.38769804 0 0 Z " fill="#FFFFFF" transform="translate(1769,14)"/>
<path d="M0 0 C3.60154142 0.01609246 7.20195868 0.00002686 10.8034668 -0.01904297 C32.37115036 -0.03955998 53.70059663 1.87022897 74.85620117 6.14111328 C76.13148682 6.39280273 77.40677246 6.64449219 78.72070312 6.90380859 C107.55908164 12.79264036 107.55908164 12.79264036 118.16870117 18.39111328 C118.16870117 18.72111328 118.16870117 19.05111328 118.16870117 19.39111328 C42.92870117 19.39111328 -32.31129883 19.39111328 -109.83129883 19.39111328 C-108.83129883 17.39111328 -108.83129883 17.39111328 -106.73120117 16.52490234 C-93.3503436 12.39664193 -80.00890011 8.77398146 -66.26879883 6.07861328 C-65.11492676 5.84883789 -63.96105469 5.6190625 -62.7722168 5.38232422 C-41.94315007 1.49058504 -21.17352001 -0.11191533 0 0 Z " fill="#FFFFFF" transform="translate(319.831298828125,-0.39111328125)"/>
<path d="M0 0 C1.00184326 0.20222168 2.00368652 0.40444336 3.03588867 0.61279297 C3.93412354 0.80631348 4.8323584 0.99983398 5.7578125 1.19921875 C6.92401123 1.44998169 6.92401123 1.44998169 8.11376953 1.70581055 C9.875 2.3125 9.875 2.3125 10.875 4.3125 C-74.595 4.3125 -160.065 4.3125 -248.125 4.3125 C-247.795 3.6525 -247.465 2.9925 -247.125 2.3125 C-243.26051176 1.04428472 -239.227782 0.33391656 -235.25 -0.5 C-233.39435425 -0.89203613 -233.39435425 -0.89203613 -231.5012207 -1.29199219 C-208.3611361 -6.07096411 -184.70553045 -9.24397046 -161.125 -10.6875 C-160.21492188 -10.74389648 -159.30484375 -10.80029297 -158.3671875 -10.85839844 C-105.63627355 -13.96129693 -51.80382158 -10.53356208 0 0 Z " fill="#FFFFFF" transform="translate(1210.125,14.6875)"/>
<path d="M0 0 C44.22 0 88.44 0 134 0 C132.875 9 132.875 9 132.02734375 12.28125 C131.76147461 13.32539063 131.76147461 13.32539063 131.49023438 14.390625 C131.30783203 15.08671875 131.12542969 15.7828125 130.9375 16.5 C130.75123047 17.22703125 130.56496094 17.9540625 130.37304688 18.703125 C129.91973545 20.46987724 129.4604998 22.23510775 129 24 C120.52925855 24.8705656 114.06613406 24.05313257 106.25 20.9375 C72.41460658 7.49788575 36.02789592 3.66075023 0 1 C0 0.67 0 0.34 0 0 Z " fill="#FFFFFF" transform="translate(1111,148)"/>
<path d="M0 0 C13.68883128 -2.10433897 24.27778133 2.84653649 36.73046875 8.03515625 C52.2876666 14.50298821 68.57672261 19.27967487 85 23 C85 23.33 85 23.66 85 24 C54.97 24 24.94 24 -6 24 C-2 5 -2 5 0 0 Z " fill="#FFFFFF" transform="translate(1414,493)"/>
<path d="M0 0 C29.37 0 58.74 0 89 0 C86.75 12.375 86.75 12.375 84.875 18.1875 C84.52179688 19.29480469 84.16859375 20.40210938 83.8046875 21.54296875 C83.53914063 22.35378906 83.27359375 23.16460937 83 24 C76.41027258 24.4188703 72.0446057 23.15106354 66.0625 20.5 C44.66741711 11.54499012 22.59054388 5.94160836 0 1 C0 0.67 0 0.34 0 0 Z " fill="#FFFFFF" transform="translate(1706,148)"/>
</svg>
