<?xml version="1.0" encoding="utf-8"?>
<!-- Generator: Adobe Illustrator 28.2.0, SVG Export Plug-In . SVG Version: 6.00 Build 0)  -->
<svg version="1.1" id="Ebene_1" xmlns="http://www.w3.org/2000/svg" xmlns:xlink="http://www.w3.org/1999/xlink" x="0px" y="0px"
	 viewBox="0 0 500 500" style="enable-background:new 0 0 500 500;" xml:space="preserve">
<style type="text/css">
	.st0{fill:#EA6418;}
	.st1{fill:#0B7C8A;}
</style>
<g>
	<path class="st0" d="M144.9,390.9c-42.9-32.1-70.7-83.2-70.7-140.8c0-96.9,78.8-175.7,175.7-175.7c24.7,0,48.2,5.1,69.5,14.4
		l25.7-44.5c-29-13.4-61.2-21-95.2-21c-125.1,0-226.8,101.8-226.8,226.8c0,76.5,38.1,144.2,96.2,185.3L144.9,390.9z"/>
	<path class="st0" d="M377,62.3l-25.7,44.5c44.9,31.9,74.3,84.2,74.3,143.3c0,96.9-78.8,175.7-175.7,175.7
		c-26.2,0-51.1-5.8-73.4-16.1l-25.7,44.5c30,14.6,63.6,22.8,99.1,22.8c125.1,0,226.8-101.8,226.8-226.8
		C476.7,172.1,437.1,103.2,377,62.3z"/>
</g>
<g>
	<path class="st1" d="M172.2,236.1c6.6-36.9,38.9-65,77.7-65s71.1,28.1,77.7,65h51.7C372.3,170.9,317,120,249.9,120
		s-122.4,51-129.4,116.2H172.2z"/>
	<path class="st1" d="M325.6,272.8c-9.8,32.5-40,56.3-75.7,56.3s-65.9-23.8-75.7-56.3h-52.5c10.8,61,64.1,107.5,128.2,107.5
		s117.4-46.5,128.2-107.5H325.6z"/>
</g>
</svg>
