<?xml version="1.0" encoding="utf-8"?>
<!-- Generator: Adobe Illustrator 28.2.0, SVG Export Plug-In . SVG Version: 6.00 Build 0)  -->
<svg version="1.1" id="Ebene_1" xmlns="http://www.w3.org/2000/svg" xmlns:xlink="http://www.w3.org/1999/xlink" x="0px" y="0px"
	 viewBox="0 0 382.2 146.8" style="enable-background:new 0 0 382.2 146.8;" xml:space="preserve">
<path d="M292.5,65.2V112c-6.5,2.2-18.4,4.8-29.6,4.8c-16.8,0-28.2-4.2-35.9-11.5c-8-7.6-12.2-18.7-12.2-31
	c0.1-29.7,22.3-44.8,50-44.8c10.4,0,18.6,1.7,23.3,3.6l-9.8,16.7c-3.6-0.9-8-1.4-13.7-1.4c-14.1,0-25.8,7.4-25.8,24.7
	c0,16,10.3,25.3,24.2,25.3c3.2,0,6.1-0.3,7.2-0.8V83H259l10.4-17.8H292.5z M192.5,36.5L181,56.4c2.3,4.4,3.6,10.2,3.6,16.6
	c0,15.5-6.5,26.3-17.5,26.3c-11,0-18-9.9-18-26c0-15.7,7-26.1,17.8-26.1c3.6,0,6.7,1.2,9.3,3.3l10.2-17.4c-5.4-2.5-11.7-4-19-4
	c-26.3,0-42.5,19.8-42.5,44.8c0,23.7,14.6,43.7,41.1,43.7c26.4,0,42.9-17.5,42.9-45.1C208.9,57.9,203.4,44.5,192.5,36.5z M338.9,64
	c-10.8-3.9-15.4-5.7-15.4-10.1c0-3.8,3.8-6.4,10.8-6.4c5.3,0,9.7,0.9,13.3,2l9.6-16.5c-5.5-2.4-12.8-4.2-22.6-4.2
	c-21.6,0-34.5,11.7-34.5,26.9c0,12.7,9.7,20.8,24.2,25.8c9.7,3.3,13.5,5.7,13.5,9.9c0,4.3-3.8,7-11.7,7c-5,0-9.9-0.9-14.1-2.2
	l-9.9,17c5.4,2.1,13.9,4,22.6,4c25.1,0,36.5-12.6,36.5-27.4C361.2,78,354.3,69.7,338.9,64z"/>
<g>
	<path d="M46.2,102.1c-8.8-6.6-14.6-17.2-14.6-29c0-20,16.3-36.2,36.2-36.2c5.1,0,9.9,1.1,14.3,3l5.3-9.2c-6-2.8-12.6-4.3-19.6-4.3
		C42,26.3,21,47.3,21,73.1c0,15.8,7.8,29.7,19.8,38.2L46.2,102.1z"/>
	<path d="M94,34.4l-5.3,9.2C98,50.1,104,60.9,104,73.1c0,20-16.3,36.2-36.2,36.2c-5.4,0-10.5-1.2-15.1-3.3l-5.3,9.2
		c6.2,3,13.1,4.7,20.4,4.7c25.8,0,46.8-21,46.8-46.8C114.6,57,106.4,42.8,94,34.4z"/>
</g>
<g>
	<path d="M51.8,70.2c1.4-7.6,8-13.4,16-13.4s14.7,5.8,16,13.4h10.7c-1.4-13.4-12.9-24-26.7-24s-25.2,10.5-26.7,24H51.8z"/>
	<path d="M83.4,77.8c-2,6.7-8.2,11.6-15.6,11.6s-13.6-4.9-15.6-11.6H41.4c2.2,12.6,13.2,22.2,26.4,22.2S92,90.4,94.2,77.8H83.4z"/>
</g>
</svg>
